# xmcd CD database file
#
# Track frame offsets:
#	150
#	19650
#	40520
#
# Disc length: 906 seconds
#
# Revision: 0
# Processed by: cddbd v1.5.1PL2 Copyright (c) Steve Scherf et al.
# Submitted via: CD2WAV32(JP) R3.22
#
DISCID=15038803
DTITLE=Waive - 君と微笑おう
DYEAR=2003
DGENRE=Rock
TTITLE0=君と微笑おう
TTITLE1=ピチカート
TTITLE2=spanner
EXTD=
EXTT0=
EXTT1=
EXTT2=
PLAYORDER=
